<svg id="Capa_1" enable-background="new 0 0 511.291 511.291" height="512" viewBox="0 0 511.291 511.291" width="512" xmlns="http://www.w3.org/2000/svg"><g><path d="m511.286 170.608c.31-17.468-14.179-32.228-31.651-32.228h-44.233c-26.027 0-50.539 10.682-68.826 29.062-30.756-23.161-74.279-23.739-105.559-1.224-3.426 2.465-8.028 2.465-11.452 0-17.06-12.278-38.055-18.113-59.109-16.431-16.919 1.352-33.011 7.534-46.451 17.655-18.287-18.379-42.799-29.062-68.826-29.062h-44.232c-34.097 0-42.932 48.125-11.703 60.905-12.464 16.467-5.316 40.58 13.574 48.312-15.772 20.841.223 50.708 25.819 50.708h72.908c9.522 10.745 20.266 20.527 30.415 30.675 6.636 6.636 17.546-3.668 10.606-10.606l-26.648-26.648c-29.08-29.08-29.581-76.237-1.117-105.122 25.825-26.207 66.2-29.659 96.001-8.21 8.665 6.236 20.31 6.236 28.976 0 29.8-21.45 70.175-17.998 96.001 8.21 28.464 28.885 27.963 76.042-1.117 105.122l-92.589 92.589c-9.255 9.254-24.313 9.254-33.567 0l-40.941-40.941c-6.636-6.636-17.546 3.668-10.606 10.606l40.941 40.941c7.551 7.552 17.471 11.327 27.39 11.327s19.839-3.775 27.39-11.327l92.589-92.589c34.429-34.429 35.377-90.03 2.496-124.866 15.234-15.318 36.007-24.085 57.636-24.085h44.233c10.011 0 18.033 9.247 16.459 19.177-1.295 8.171-8.845 14.134-17.008 14.134h-49.462c-9.674 0-9.674 15 0 15h36.436c10.007 0 18.01 9.233 16.453 19.156-1.284 8.182-8.833 14.156-17.005 14.156h-13.032c-4.142 0-7.5 3.358-7.5 7.5s3.358 7.5 7.5 7.5c4.449 0 8.635 1.733 11.777 4.868 10.621 10.645 2.228 28.434-12.309 28.434h-34.987c-9.674 0-9.674 15 0 15h34.987c25.563 0 41.57-29.892 25.818-50.708 18.916-7.74 26.057-31.816 13.575-48.312 11.492-4.702 19.721-15.786 19.95-28.678zm-390.51 112.697h-62.138c-14.457 0-22.821-17.899-12.32-28.422 3.153-3.146 7.339-4.879 11.788-4.879 9.385 0 9.813-15 0-15h-13.032c-21.677 0-22.375-33.312-.552-33.312h36.436c9.674 0 9.674-15 0-15h-49.462c-21.685 0-22.376-33.312-.549-33.312h44.233c21.591 0 42.453 8.745 57.636 24.085-27.338 28.964-31.277 72.268-12.04 105.84z"/><path d="m195.887 116.937h19.738c4.142 0 7.5-3.358 7.5-7.5s-3.358-7.5-7.5-7.5h-19.738c-8.324 0-15.096-6.772-15.096-15.096s6.772-15.096 15.096-15.096h118.809c8.324 0 15.096 6.772 15.096 15.096s-6.772 15.096-15.096 15.096h-65.071c-4.142 0-7.5 3.358-7.5 7.5s3.358 7.5 7.5 7.5h65.071c16.595 0 30.096-13.501 30.096-30.096s-13.501-30.096-30.096-30.096h-118.809c-16.595 0-30.096 13.501-30.096 30.096s13.501 30.096 30.096 30.096z"/><path d="m158.677 412.751-28.991 28.991c-6.934 6.932 3.824 17.389 10.606 10.606l28.991-28.991c6.638-6.636-3.667-17.545-10.606-10.606z"/><path d="m357.751 412.751c-6.636-6.636-17.546 3.668-10.606 10.606l28.991 28.991c6.783 6.783 17.54-3.674 10.606-10.606z"/><path d="m428.483 361.679-39.603-10.611c-9.343-2.506-13.227 11.985-3.882 14.489l39.603 10.611c9.339 2.505 13.223-11.986 3.882-14.489z"/><path d="m136.733 356.371c-1.072-4.001-5.187-6.374-9.186-5.304l-39.603 10.611c-9.341 2.503-5.458 16.987 3.882 14.489l39.603-10.611c4.002-1.071 6.376-5.184 5.304-9.185z"/></g></svg>